# xmcd
#
# Track frame offsets:
# 150
# 12503
# 22147
# 33856
# 45612
# 57019
# 67478
# 80612
# 92728
# 104250
# 112946
# 125597
#
# Disc length: 1799 seconds
#
#
# Revision: 0
# Processed by: cddbd v1.5.2PL0 Copyright (c) Steve Scherf et al.
# Submitted via: FreeRIP 2.942 
#
DISCID=a007050c
DTITLE=Various Artist - Legends Of Country
DYEAR=1900
DGENRE=Country
TTITLE0=Wasted Days and Wasted Nights
TTITLE1=From A Jack To A King
TTITLE2=Oh Lonesome Me
TTITLE3=Crying
TTITLE4=Send Me The Pillow
TTITLE5=Little Miss Blue Eyes
TTITLE6=Ruby
TTITLE7=Before The Next Teardrop Falls
TTITLE8=Take This Job and Shove It
TTITLE9=Love Gonna Live Here
TTITLE10=Wolverton Mountain
TTITLE11=Old Brush Arbors
EXTD=
EXTT0=
EXTT1=
EXTT2=
EXTT3=
EXTT4=
EXTT5=
EXTT6=
EXTT7=
EXTT8=
EXTT9=
EXTT10=
EXTT11=
PLAYORDER=
